<?xml version="1.0" encoding="UTF-8"?>
<svg version="1.1" xmlns="http://www.w3.org/2000/svg" width="80" height="41">
<path d="M0 0 C2.2491787 0.06286297 4.49812951 0.10422808 6.74780273 0.14501953 C8.17817801 0.18406062 9.60851905 0.2243817 11.03881836 0.26611328 C12.33827393 0.29866211 13.63772949 0.33121094 14.9765625 0.36474609 C18.37890694 0.83916733 19.11074498 1.2459738 21.19116211 3.81298828 C23.42382054 3.92204029 23.42382054 3.92204029 25.75366211 3.43798828 C30.01404034 2.7244274 30.01404034 2.7244274 32.19116211 3.81298828 C32.19116211 4.47298828 32.19116211 5.13298828 32.19116211 5.81298828 C29.55116211 6.47298828 26.91116211 7.13298828 24.19116211 7.81298828 C26.68032539 10.71701211 29.31985654 11.90408792 32.81616211 13.37548828 C38.08143642 15.59353691 38.08143642 15.59353691 39.19116211 17.81298828 C39.28718281 19.46834892 39.32190765 21.12750264 39.32397461 22.78564453 C39.32526367 23.76726563 39.32655273 24.74888672 39.32788086 25.76025391 C39.32401367 26.78828125 39.32014648 27.81630859 39.31616211 28.87548828 C39.3200293 29.90738281 39.32389648 30.93927734 39.32788086 32.00244141 C39.3265918 32.98277344 39.32530273 33.96310547 39.32397461 34.97314453 C39.32284668 35.87685791 39.32171875 36.78057129 39.32055664 37.71166992 C39.19116211 39.81298828 39.19116211 39.81298828 38.19116211 40.81298828 C35.85401886 40.91322383 33.54641886 40.94918031 31.20874023 40.94238281 C30.11365395 40.94501129 30.11365395 40.94501129 28.9964447 40.94769287 C26.57174333 40.95211127 24.14711429 40.94917345 21.72241211 40.94580078 C20.04471828 40.94647382 18.36702455 40.94744385 16.68933105 40.94869995 C13.16861037 40.95017691 9.64791501 40.94802244 6.12719727 40.94335938 C1.60405715 40.93766208 -2.91902363 40.9409411 -7.44216156 40.94693184 C-10.90786184 40.95053751 -14.37354796 40.94939884 -17.83924866 40.94680405 C-19.50749214 40.94613479 -21.17573688 40.94696314 -22.84397888 40.9492836 C-25.17149283 40.95181023 -27.49890937 40.94796941 -29.82641602 40.94238281 C-30.52255508 40.94440704 -31.21869415 40.94643127 -31.93592834 40.94851685 C-36.69457515 40.92725102 -36.69457515 40.92725102 -37.80883789 39.81298828 C-38.68457473 34.88384091 -38.99857756 30.06459571 -39.05883789 25.06298828 C-39.08461914 23.76876953 -39.11040039 22.47455078 -39.13696289 21.14111328 C-38.80883789 17.81298828 -38.80883789 17.81298828 -37.60961914 15.98486328 C-34.63942013 14.05197889 -31.41140054 13.04737159 -28.08618164 11.87548828 C-25.49659325 10.90740816 -25.49659325 10.90740816 -23.80883789 7.81298828 C-26.44883789 7.15298828 -29.08883789 6.49298828 -31.80883789 5.81298828 C-31.80883789 5.15298828 -31.80883789 4.49298828 -31.80883789 3.81298828 C-27.09283971 2.88828276 -24.13618181 2.58375051 -19.80883789 4.81298828 C-19.56133789 4.17361328 -19.31383789 3.53423828 -19.05883789 2.87548828 C-17.80883789 0.81298828 -17.80883789 0.81298828 -16.18603516 0.18310547 C-10.85921005 -0.64625335 -5.3761156 -0.1590044 0 0 Z M-17.80883789 2.81298828 C-19.29383789 6.27798828 -19.29383789 6.27798828 -20.80883789 9.81298828 C-18.49883789 9.81298828 -16.18883789 9.81298828 -13.80883789 9.81298828 C-14.46883789 7.50298828 -15.12883789 5.19298828 -15.80883789 2.81298828 C-16.46883789 2.81298828 -17.12883789 2.81298828 -17.80883789 2.81298828 Z M-7.80883789 2.81298828 C-8.46883789 5.12298828 -9.12883789 7.43298828 -9.80883789 9.81298828 C-7.74714804 10.00919595 -5.68442791 10.19459582 -3.62133789 10.37548828 C-2.4727832 10.47990234 -1.32422852 10.58431641 -0.14086914 10.69189453 C2.8774741 10.80158813 5.28040147 10.55301217 8.19116211 9.81298828 C8.19116211 7.50298828 8.19116211 5.19298828 8.19116211 2.81298828 C5.88116211 2.81298828 3.57116211 2.81298828 1.19116211 2.81298828 C2.18116211 3.14298828 3.17116211 3.47298828 4.19116211 3.81298828 C4.19116211 4.47298828 4.19116211 5.13298828 4.19116211 5.81298828 C1.55116211 5.81298828 -1.08883789 5.81298828 -3.80883789 5.81298828 C-3.80883789 5.15298828 -3.80883789 4.49298828 -3.80883789 3.81298828 C-2.81883789 3.48298828 -1.82883789 3.15298828 -0.80883789 2.81298828 C-3.11883789 2.81298828 -5.42883789 2.81298828 -7.80883789 2.81298828 Z M16.19116211 2.81298828 C16.52116211 5.12298828 16.85116211 7.43298828 17.19116211 9.81298828 C18.51116211 9.48298828 19.83116211 9.15298828 21.19116211 8.81298828 C20.20116211 6.83298828 19.21116211 4.85298828 18.19116211 2.81298828 C17.53116211 2.81298828 16.87116211 2.81298828 16.19116211 2.81298828 Z " fill="#A8181A" transform="translate(39.808837890625,0.18701171875)"/>
<path d="M0 0 C0.66 0.33 1.32 0.66 2 1 C1.67 1.33 1.34 1.66 1 2 C4.45547603 4.09534185 7.29197531 4.30071628 11.296875 4.4140625 C12.50214844 4.45273437 13.70742188 4.49140625 14.94921875 4.53125 C16.20347656 4.5621875 17.45773438 4.593125 18.75 4.625 C20.65458984 4.68300781 20.65458984 4.68300781 22.59765625 4.7421875 C25.7316257 4.83644222 28.86558949 4.92205166 32 5 C32.495 6.485 32.495 6.485 33 8 C32.34 8 31.68 8 31 8 C31.495 9.485 31.495 9.485 32 11 C24.08 11.33 16.16 11.66 8 12 C8 12.99 8 13.98 8 15 C6.68 15.33 5.36 15.66 4 16 C5.98 16.66 7.96 17.32 10 18 C10 17.34 10 16.68 10 16 C11.485 16.2475 11.485 16.2475 13 16.5 C17.02732942 17.08474517 20.93474623 17.07132024 25 17 C25 17.66 25 18.32 25 19 C30.28 19 35.56 19 41 19 C41 18.34 41 17.68 41 17 C42.299375 17.0825 43.59875 17.165 44.9375 17.25 C49.60844903 17.2721372 52.91505501 16.0424725 57.0546875 13.97265625 C59 13 59 13 62 12 C53.09 11.67 44.18 11.34 35 11 C34.505 8.03 34.505 8.03 34 5 C46.54 5 59.08 5 72 5 C72.020625 8.279375 72.04125 11.55875 72.0625 14.9375 C72.071604 15.97253662 72.08070801 17.00757324 72.09008789 18.07397461 C72.09258545 18.88358643 72.09508301 19.69319824 72.09765625 20.52734375 C72.10289307 21.35999756 72.10812988 22.19265137 72.11352539 23.05053711 C72 25 72 25 71 26 C68.66285675 26.10023555 66.35525675 26.13619203 64.01757812 26.12939453 C63.2875206 26.13114685 62.55746307 26.13289917 61.80528259 26.13470459 C59.38058122 26.13912299 56.95595218 26.13618517 54.53125 26.1328125 C52.85355617 26.13348554 51.17586244 26.13445557 49.49816895 26.13571167 C45.97744826 26.13718863 42.4567529 26.13503416 38.93603516 26.13037109 C34.41289504 26.1246738 29.88981426 26.12795282 25.36667633 26.13394356 C21.90097605 26.13754923 18.43528993 26.13641056 14.96958923 26.13381577 C13.30134575 26.13314651 11.63310101 26.13397486 9.96485901 26.13629532 C7.63734506 26.13882195 5.30992852 26.13498113 2.98242188 26.12939453 C2.28628281 26.13141876 1.59014374 26.13344299 0.87290955 26.13552856 C-3.88573726 26.11426274 -3.88573726 26.11426274 -5 25 C-6.32739896 18.51049396 -6.9547531 11.56285239 -6 5 C-4.21190906 2.39866654 -2.80777663 1.57937435 0 0 Z " fill="#630000" transform="translate(7,15)"/>
<path d="M0 0 C-1.95040379 1.95040379 -3.43385548 2.85113961 -5.875 4.0625 C-6.55304687 4.40410156 -7.23109375 4.74570312 -7.9296875 5.09765625 C-13.01340588 7.31339011 -16.5993031 6.81010454 -22 6 C-22 6.66 -22 7.32 -22 8 C-27.28 8 -32.56 8 -38 8 C-38 7.34 -38 6.68 -38 6 C-38.58007812 6.09539063 -39.16015625 6.19078125 -39.7578125 6.2890625 C-44.76088419 6.99906937 -48.24022962 7.07477171 -53 5 C-53 5.66 -53 6.32 -53 7 C-55.97 6.505 -55.97 6.505 -59 6 C-59 5.01 -59 4.02 -59 3 C-57.68 2.67 -56.36 2.34 -55 2 C-56.32 1.34 -57.64 0.68 -59 0 C-39.23419225 -0.97350025 -19.76354814 -0.92769822 0 0 Z " fill="#910000" transform="translate(70,26)"/>
<path d="M0 0 C1.5003479 0.07069702 1.5003479 0.07069702 3.03100586 0.14282227 C4.1105957 0.19116211 5.19018555 0.23950195 6.30249023 0.28930664 C7.43879883 0.34538086 8.57510742 0.40145508 9.74584961 0.45922852 C11.45611328 0.53753906 11.45611328 0.53753906 13.20092773 0.61743164 C16.02864984 0.74757785 18.85605961 0.8825573 21.68334961 1.02172852 C21.35334961 1.68172852 21.02334961 2.34172852 20.68334961 3.02172852 C18.12084961 3.64672852 18.12084961 3.64672852 15.68334961 4.02172852 C15.68334961 4.68172852 15.68334961 5.34172852 15.68334961 6.02172852 C13.04334961 6.02172852 10.40334961 6.02172852 7.68334961 6.02172852 C7.68334961 5.36172852 7.68334961 4.70172852 7.68334961 4.02172852 C6.36334961 3.69172852 5.04334961 3.36172852 3.68334961 3.02172852 C3.46678711 4.19735352 3.46678711 4.19735352 3.24584961 5.39672852 C2.68334961 8.02172852 2.68334961 8.02172852 1.68334961 10.02172852 C8.61334961 10.02172852 15.54334961 10.02172852 22.68334961 10.02172852 C22.68334961 10.35172852 22.68334961 10.68172852 22.68334961 11.02172852 C21.03334961 11.35172852 19.38334961 11.68172852 17.68334961 12.02172852 C23.12834961 12.51672852 23.12834961 12.51672852 28.68334961 13.02172852 C29.01334961 12.36172852 29.34334961 11.70172852 29.68334961 11.02172852 C31.55834961 11.27172852 31.55834961 11.27172852 33.68334961 12.02172852 C34.34334961 13.34172852 35.00334961 14.66172852 35.68334961 16.02172852 C19.51334961 16.02172852 3.34334961 16.02172852 -13.31665039 16.02172852 C-12.65665039 15.03172852 -11.99665039 14.04172852 -11.31665039 13.02172852 C-10.32665039 13.02172852 -9.33665039 13.02172852 -8.31665039 13.02172852 C-7.98665039 12.03172852 -7.65665039 11.04172852 -7.31665039 10.02172852 C-5.66665039 10.02172852 -4.01665039 10.02172852 -2.31665039 10.02172852 C-2.97665039 9.03172852 -3.63665039 8.04172852 -4.31665039 7.02172852 C-3.61787084 0.03393303 -3.61787084 0.03393303 0 0 Z " fill="#010014" transform="translate(28.316650390625,-0.021728515625)"/>
<path d="M0 0 C1.98 0.99 3.96 1.98 6 3 C6.33 2.34 6.66 1.68 7 1 C8.91341187 1.24339111 8.91341187 1.24339111 10.86547852 1.49169922 C15.97317063 2.05665291 21.01769456 2.1445618 26.15234375 2.1328125 C27.09251846 2.13376923 28.03269318 2.13472595 29.00135803 2.13571167 C30.97706164 2.13638798 32.95276754 2.1345723 34.9284668 2.13037109 C37.92567011 2.12502112 40.92272319 2.1303318 43.91992188 2.13671875 C45.85156283 2.13605775 47.78320368 2.13477615 49.71484375 2.1328125 C50.5974437 2.13483673 51.48004364 2.13686096 52.38938904 2.13894653 C58.31219875 2.11701085 64.11808675 1.6896304 70 1 C70 1.66 70 2.32 70 3 C71.98 2.01 73.96 1.02 76 0 C76.38133299 1.9914056 76.71325582 3.99279077 77 6 C75.34111261 7.65888739 73.34315218 7.12562525 71.12709045 7.13552856 C70.08288185 7.13249222 70.08288185 7.13249222 69.01757812 7.12939453 C68.2875206 7.13114685 67.55746307 7.13289917 66.80528259 7.13470459 C64.38058122 7.13912299 61.95595218 7.13618517 59.53125 7.1328125 C57.85355617 7.13348554 56.17586244 7.13445557 54.49816895 7.13571167 C50.97744826 7.13718863 47.4567529 7.13503416 43.93603516 7.13037109 C39.41289504 7.1246738 34.88981426 7.12795282 30.36667633 7.13394356 C26.90097605 7.13754923 23.43528993 7.13641056 19.96958923 7.13381577 C18.30134575 7.13314651 16.63310101 7.13397486 14.96485901 7.13629532 C12.63734506 7.13882195 10.30992852 7.13498113 7.98242188 7.12939453 C7.28628281 7.13141876 6.59014374 7.13344299 5.87290955 7.13552856 C1.11426274 7.11426274 1.11426274 7.11426274 0 6 C-0.04080783 4.00041636 -0.04254356 1.99954746 0 0 Z " fill="#330A0A" transform="translate(2,34)"/>
<path d="M0 0 C2.18850853 -0.08060805 3.98806898 -0.09417938 6.12109375 0.421875 C6.60449219 0.93492188 7.08789062 1.44796875 7.5859375 1.9765625 C9.03570459 3.66601271 9.03570459 3.66601271 11.3125 3.4609375 C12.48619141 3.25597656 12.48619141 3.25597656 13.68359375 3.046875 C17.94397198 2.33331411 17.94397198 2.33331411 20.12109375 3.421875 C20.12109375 4.081875 20.12109375 4.741875 20.12109375 5.421875 C17.48109375 6.081875 14.84109375 6.741875 12.12109375 7.421875 C15.25991089 11.10518083 19.32461663 12.29414197 23.72265625 14.04296875 C24.51414062 14.49800781 25.305625 14.95304688 26.12109375 15.421875 C26.61609375 17.401875 26.61609375 17.401875 27.12109375 19.421875 C21.84109375 19.091875 16.56109375 18.761875 11.12109375 18.421875 C12.44109375 17.761875 13.76109375 17.101875 15.12109375 16.421875 C15.12109375 16.091875 15.12109375 15.761875 15.12109375 15.421875 C14.13109375 15.421875 13.14109375 15.421875 12.12109375 15.421875 C10.43359375 13.421875 10.43359375 13.421875 9.12109375 11.421875 C8.06341797 11.92847656 8.06341797 11.92847656 6.984375 12.4453125 C3.75094929 13.54811799 1.67851673 13.45288982 -1.69140625 13.046875 C-3.15513672 12.88058594 -3.15513672 12.88058594 -4.6484375 12.7109375 C-5.38449219 12.61554687 -6.12054688 12.52015625 -6.87890625 12.421875 C-6.37359375 11.96554687 -5.86828125 11.50921875 -5.34765625 11.0390625 C-4.620625 10.23855469 -4.620625 10.23855469 -3.87890625 9.421875 C-4.04390625 8.803125 -4.20890625 8.184375 -4.37890625 7.546875 C-4.87890625 5.421875 -4.87890625 5.421875 -3.94140625 2.671875 C-1.87890625 0.421875 -1.87890625 0.421875 0 0 Z M4.12109375 2.421875 C4.45109375 4.731875 4.78109375 7.041875 5.12109375 9.421875 C6.44109375 9.091875 7.76109375 8.761875 9.12109375 8.421875 C8.13109375 6.441875 7.14109375 4.461875 6.12109375 2.421875 C5.46109375 2.421875 4.80109375 2.421875 4.12109375 2.421875 Z " fill="#A10203" transform="translate(51.87890625,0.578125)"/>
<path d="M0 0 C0.66 0.33 1.32 0.66 2 1 C1.67 1.33 1.34 1.66 1 2 C4.45547603 4.09534185 7.29197531 4.30071628 11.296875 4.4140625 C12.50214844 4.45273437 13.70742188 4.49140625 14.94921875 4.53125 C16.20347656 4.5621875 17.45773438 4.593125 18.75 4.625 C20.65458984 4.68300781 20.65458984 4.68300781 22.59765625 4.7421875 C25.7316257 4.83644222 28.86558949 4.92205166 32 5 C32.495 6.485 32.495 6.485 33 8 C32.34 8 31.68 8 31 8 C31.495 9.485 31.495 9.485 32 11 C19.46 11 6.92 11 -6 11 C-6 5 -6 5 -4.6875 3.3203125 C-3.125 2.21354167 -1.5625 1.10677083 0 0 Z " fill="#010001" transform="translate(7,15)"/>
<path d="M0 0 C12.54 0 25.08 0 38 0 C38 1.98 38 3.96 38 6 C25.79 6 13.58 6 1 6 C0.67 4.02 0.34 2.04 0 0 Z " fill="#010101" transform="translate(41,20)"/>
<path d="M0 0 C1.22589844 0.01353516 1.22589844 0.01353516 2.4765625 0.02734375 C3.41628906 0.04474609 3.41628906 0.04474609 4.375 0.0625 C4.86014851 6.36943069 4.86014851 6.36943069 2.625 9.5625 C1.8825 10.0575 1.14 10.5525 0.375 11.0625 C-0.95903103 10.73196999 -2.29221288 10.39801065 -3.625 10.0625 C-5.71174954 10.14629435 -7.79649066 10.29666756 -9.875 10.5 C-11.49148437 10.65275391 -11.49148437 10.65275391 -13.140625 10.80859375 C-14.37039062 10.93427734 -14.37039062 10.93427734 -15.625 11.0625 C-15.295 10.0725 -14.965 9.0825 -14.625 8.0625 C-13.635 8.0625 -12.645 8.0625 -11.625 8.0625 C-11.625 6.7425 -11.625 5.4225 -11.625 4.0625 C-7.66938257 1.25192972 -4.80728452 -0.06867549 0 0 Z " fill="#670000" transform="translate(74.625,25.9375)"/>
<path d="M0 0 C1.485 0.2475 1.485 0.2475 3 0.5 C7.02732942 1.08474517 10.93474623 1.07132024 15 1 C15 1.66 15 2.32 15 3 C20.28 3 25.56 3 31 3 C31 2.34 31 1.68 31 1 C31.58007812 1.01160156 32.16015625 1.02320313 32.7578125 1.03515625 C37.2998246 1.08762174 41.52713569 0.91751063 46 0 C46 0.99 46 1.98 46 3 C45.01 3 44.02 3 43 3 C43 3.66 43 4.32 43 5 C29.8 5 16.6 5 3 5 C3 4.34 3 3.68 3 3 C2.01 3 1.02 3 0 3 C0 2.01 0 1.02 0 0 Z " fill="#020202" transform="translate(17,31)"/>
<path d="M0 0 C5.61 0 11.22 0 17 0 C17 0.33 17 0.66 17 1 C15.35 1.33 13.7 1.66 12 2 C16.62 2.66 21.24 3.32 26 4 C26 4.33 26 4.66 26 5 C12.8 5 -0.4 5 -14 5 C-10.57905758 2.71937172 -9.31812778 2.78074993 -5.3125 2.875 C-3.82169922 2.90207031 -3.82169922 2.90207031 -2.30078125 2.9296875 C-1.54152344 2.95289063 -0.78226563 2.97609375 0 3 C0 2.01 0 1.02 0 0 Z " fill="#8B1409" transform="translate(34,10)"/>
<path d="M0 0 C2.375 0.25 2.375 0.25 5 1 C6.97611297 3.76655816 7.39203622 6.69962522 8 10 C8.33 10.66 8.66 11.32 9 12 C5.6888987 13.10370043 3.75251051 12.92673641 0.3125 12.5625 C-1.17830078 12.40974609 -1.17830078 12.40974609 -2.69921875 12.25390625 C-3.45847656 12.17011719 -4.21773437 12.08632812 -5 12 C-4.4946875 11.54367187 -3.989375 11.08734375 -3.46875 10.6171875 C-2.74171875 9.81667969 -2.74171875 9.81667969 -2 9 C-2.165 8.38125 -2.33 7.7625 -2.5 7.125 C-3 5 -3 5 -1.5625 2.25 C-1.046875 1.5075 -0.53125 0.765 0 0 Z " fill="#E9B053" transform="translate(50,1)"/>
<path d="M0 0 C5.28 0 10.56 0 16 0 C16 1.98 16 3.96 16 6 C10.72 6 5.44 6 0 6 C0 4.02 0 2.04 0 0 Z " fill="#817E81" transform="translate(32,28)"/>
<path d="M0 0 C7.92 0.33 15.84 0.66 24 1 C23.67 1.66 23.34 2.32 23 3 C20.4375 3.625 20.4375 3.625 18 4 C18 4.66 18 5.32 18 6 C15.36 6 12.72 6 10 6 C10 5.34 10 4.68 10 4 C8.68 3.67 7.36 3.34 6 3 C6 3.66 6 4.32 6 5 C2.83884224 3.63016497 2.0072908 3.0109362 0 0 Z " fill="#74221B" transform="translate(26,0)"/>
<path d="M0 0 C5.28 0 10.56 0 16 0 C16 1.32 16 2.64 16 4 C10.72 4 5.44 4 0 4 C0 2.68 0 1.36 0 0 Z " fill="#421C14" transform="translate(63,21)"/>
<path d="M0 0 C5.28 0 10.56 0 16 0 C16 1.32 16 2.64 16 4 C10.72 4 5.44 4 0 4 C0 2.68 0 1.36 0 0 Z " fill="#421C14" transform="translate(1,21)"/>
<path d="M0 0 C1.62418745 -0.08090971 3.24951745 -0.13914995 4.875 -0.1875 C5.77992187 -0.22230469 6.68484375 -0.25710937 7.6171875 -0.29296875 C8.79667969 -0.14794922 8.79667969 -0.14794922 10 0 C10.66 0.99 11.32 1.98 12 3 C12.98095748 4.01868662 13.97702078 5.02351983 15 6 C11.23375329 7.25541557 9.62811066 6.37061958 6 5 C6 5.66 6 6.32 6 7 C3.03 6.505 3.03 6.505 0 6 C0 5.01 0 4.02 0 3 C1.32 2.67 2.64 2.34 4 2 C2.68 1.34 1.36 0.68 0 0 Z " fill="#861819" transform="translate(11,26)"/>
<path d="M0 0 C6.27 0 12.54 0 19 0 C17.04959621 1.95040379 15.56614452 2.85113961 13.125 4.0625 C12.44695313 4.40410156 11.76890625 4.74570312 11.0703125 5.09765625 C9.01506161 5.99343541 7.22473503 6.69747327 5 7 C4.34 6.34 3.68 5.68 3 5 C4.32 4.01 5.64 3.02 7 2 C6.34 1.67 5.68 1.34 5 1 C5 1.66 5 2.32 5 3 C4.01 3.33 3.02 3.66 2 4 C2 3.34 2 2.68 2 2 C1.34 1.34 0.68 0.68 0 0 Z " fill="#B52437" transform="translate(51,26)"/>
<path d="M0 0 C0.99 0 1.98 0 3 0 C3 0.66 3 1.32 3 2 C2.01 2 1.02 2 0 2 C-0.433125 3.4540625 -0.433125 3.4540625 -0.875 4.9375 C-2 8 -2 8 -4 9 C-4.33 8.34 -4.66 7.68 -5 7 C-7.11846285 6.31270746 -7.11846285 6.31270746 -9.5625 5.875 C-10.38878906 5.70742187 -11.21507812 5.53984375 -12.06640625 5.3671875 C-12.70449219 5.24601563 -13.34257812 5.12484375 -14 5 C-14 4.34 -14 3.68 -14 3 C-9.28400182 2.07529447 -6.32734391 1.77076223 -2 4 C-1.34 2.68 -0.68 1.36 0 0 Z " fill="#9B0100" transform="translate(22,1)"/>
<path d="M0 0 C0.33 0 0.66 0 1 0 C1.38133299 1.9914056 1.71325582 3.99279077 2 6 C1 7 1 7 -2.81640625 7.09765625 C-4.39846682 7.09098089 -5.98051159 7.07901875 -7.5625 7.0625 C-8.36880859 7.05798828 -9.17511719 7.05347656 -10.00585938 7.04882812 C-12.00393756 7.03700518 -14.00197783 7.01906914 -16 7 C-15.360625 6.87625 -14.72125 6.7525 -14.0625 6.625 C-13.381875 6.41875 -12.70125 6.2125 -12 6 C-11.67 5.34 -11.34 4.68 -11 4 C-9.34080104 3.63128912 -7.67225729 3.30404678 -6 3 C-2.73610679 1.93805815 -2.73610679 1.93805815 0 0 Z " fill="#100B08" transform="translate(77,34)"/>
<path d="M0 0 C4.75 0.75 4.75 0.75 7 3 C9.15472873 2.98435123 9.15472873 2.98435123 11.5 2.5625 C15.79900744 1.89950372 15.79900744 1.89950372 18 3 C18 3.66 18 4.32 18 5 C16.58622218 5.36552803 15.16879424 5.71695495 13.75 6.0625 C12.96109375 6.25972656 12.1721875 6.45695313 11.359375 6.66015625 C8.89605178 7.01497267 7.34395868 6.76877544 5 6 C4.67 4.68 4.34 3.36 4 2 C2.68 1.67 1.36 1.34 0 1 C0 0.67 0 0.34 0 0 Z " fill="#9B0000" transform="translate(54,1)"/>
<path d="M0 0 C0.51949219 0.28875 1.03898438 0.5775 1.57421875 0.875 C6.96165468 3.76732832 6.96165468 3.76732832 13 4 C13 4.66 13 5.32 13 6 C13.99 6.33 14.98 6.66 16 7 C13.52076199 7.02685095 11.0418116 7.04676547 8.5625 7.0625 C7.85544922 7.07087891 7.14839844 7.07925781 6.41992188 7.08789062 C4.61306441 7.09653588 2.80612397 7.05220011 1 7 C0 6 0 6 -0.0625 2.9375 C-0.041875 1.968125 -0.02125 0.99875 0 0 Z " fill="#0D0705" transform="translate(2,34)"/>
<path d="M0 0 C-0.625 1.875 -0.625 1.875 -2 4 C-5.61818544 5.57312411 -8.02093353 6 -12 6 C-12 5.01 -12 4.02 -12 3 C-7.51000162 -0.07210416 -5.30027841 -1.2553291 0 0 Z " fill="#850000" transform="translate(75,27)"/>
<path d="M0 0 C2.375 0.1875 2.375 0.1875 5 1 C6.3125 3.5625 6.3125 3.5625 7 6 C4.35261084 7.4606285 3.10551666 8 0 8 C-0.79953138 4.71303767 -1.09658936 3.28976808 0 0 Z " fill="#E7D70B" transform="translate(50,1)"/>
<path d="M0 0 C2.49361571 1.20381448 4.68143083 2.45428722 7 4 C6.34 5.65 5.68 7.3 5 9 C3.68 9 2.36 9 1 9 C-1 6 -1 6 -0.625 2.8125 C-0.41875 1.884375 -0.2125 0.95625 0 0 Z " fill="#271507" transform="translate(25,1)"/>
<path d="M0 0 C1.65 0 3.3 0 5 0 C5 1.98 5 3.96 5 6 C2.36 6 -0.28 6 -3 6 C-2.34 5.67 -1.68 5.34 -1 5 C-0.34444881 2.47266765 -0.34444881 2.47266765 0 0 Z " fill="#8E8B8E" transform="translate(43,28)"/>
<path d="M0 0 C5.28 0 10.56 0 16 0 C16 0.33 16 0.66 16 1 C11.06944421 2.97222232 7.23685512 3.43640459 2 3 C1.34 2.01 0.68 1.02 0 0 Z " fill="#380000" transform="translate(35,10)"/>
<path d="M0 0 C-0.33 0.66 -0.66 1.32 -1 2 C-3.64 2 -6.28 2 -9 2 C-9 1.01 -9 0.02 -9 -1 C-5.23375329 -2.25541557 -3.62811066 -1.37061958 0 0 Z " fill="#A10000" transform="translate(16,28)"/>
<path d="M0 0 C4.875 2.75 4.875 2.75 6 5 C3.00468461 5.99843846 1.82744268 6.00732761 -1.1875 5.5625 C-2.445625 5.376875 -3.70375 5.19125 -5 5 C-4.360625 4.731875 -3.72125 4.46375 -3.0625 4.1875 C-0.66868314 3.11332248 -0.66868314 3.11332248 0 0 Z " fill="#650000" transform="translate(68,14)"/>
<path d="M0 0 C0.99 0.33 1.98 0.66 3 1 C3.70491267 3.32206525 4.37212429 5.65593068 5 8 C5.66 8.33 6.32 8.66 7 9 C6.01 9 5.02 9 4 9 C3.5875 8.360625 3.175 7.72125 2.75 7.0625 C1.03600693 4.61163131 1.03600693 4.61163131 -2.6875 4.25 C-3.780625 4.1675 -4.87375 4.085 -6 4 C-6 3.67 -6 3.34 -6 3 C-4.02 2.67 -2.04 2.34 0 2 C0 1.34 0 0.68 0 0 Z " fill="#660000" transform="translate(60,7)"/>
<path d="M0 0 C2.31 0.33 4.62 0.66 7 1 C7 1.66 7 2.32 7 3 C4.29120665 4.35439668 1.99066732 4.06501451 -1 4 C-0.67 2.68 -0.34 1.36 0 0 Z " fill="#873334" transform="translate(65,3)"/>
<path d="M0 0 C0.33 1.32 0.66 2.64 1 4 C-4.75 4.125 -4.75 4.125 -7 3 C-7 2.34 -7 1.68 -7 1 C-4.53721199 -0.231394 -2.7204945 -0.07159196 0 0 Z " fill="#873334" transform="translate(15,3)"/>
<path d="M0 0 C3.3 0 6.6 0 10 0 C10 0.99 10 1.98 10 3 C5.82412255 4.39195915 3.86525224 2.82323219 0 1 C0 0.67 0 0.34 0 0 Z " fill="#B8283D" transform="translate(11,26)"/>
<path d="M0 0 C0.66 0.33 1.32 0.66 2 1 C1.67 1.33 1.34 1.66 1 2 C2.32 2.99 3.64 3.98 5 5 C2.36 5 -0.28 5 -3 5 C-3 4.01 -3 3.02 -3 2 C-2.01 1.34 -1.02 0.68 0 0 Z " fill="#630000" transform="translate(7,15)"/>
<path d="M0 0 C1.875 0.25 1.875 0.25 4 1 C5.25 3.0625 5.25 3.0625 6 5 C4.02 5 2.04 5 0 5 C-0.33 4.01 -0.66 3.02 -1 2 C-0.67 1.34 -0.34 0.68 0 0 Z " fill="#000000" transform="translate(58,11)"/>
<path d="M0 0 C2 1 2 1 3.125 4.0625 C3.41375 5.031875 3.7025 6.00125 4 7 C4.66 7 5.32 7 6 7 C6 7.99 6 8.98 6 10 C3.53199953 8.84826645 1.95216435 7.95216435 0 6 C-0.125 2.875 -0.125 2.875 0 0 Z " fill="#420000" transform="translate(1,27)"/>
<path d="M0 0 C-1.125 1.5 -1.125 1.5 -3 3 C-6.1875 3.1875 -6.1875 3.1875 -9 3 C-8.67 2.01 -8.34 1.02 -8 0 C-4.71023192 -1.09658936 -3.28696233 -0.79953138 0 0 Z " fill="#A10304" transform="translate(75,27)"/>
<path d="M0 0 C3.96 0 7.92 0 12 0 C12.33 0.66 12.66 1.32 13 2 C9.6888987 3.10370043 7.75251051 2.92673641 4.3125 2.5625 C3.31863281 2.46066406 2.32476562 2.35882813 1.30078125 2.25390625 C0.54152344 2.17011719 -0.21773437 2.08632812 -1 2 C-0.67 1.34 -0.34 0.68 0 0 Z " fill="#DE8E87" transform="translate(46,11)"/>
<path d="M0 0 C0.33 0 0.66 0 1 0 C1.25 2.25 1.25 2.25 1 5 C-0.875 7.3125 -0.875 7.3125 -3 9 C-3.66 9 -4.32 9 -5 9 C-4.01593623 6.04780869 -2.87752159 4.42513206 -1 2 C-0.67 1.34 -0.34 0.68 0 0 Z " fill="#420000" transform="translate(78,28)"/>
<path d="M0 0 C0.33 0.66 0.66 1.32 1 2 C-1.31 2.66 -3.62 3.32 -6 4 C-6.66 3.34 -7.32 2.68 -8 2 C-4.77208445 -0.1519437 -3.71599191 -0.20086443 0 0 Z " fill="#873637" transform="translate(62,29)"/>
<path d="M0 0 C2.31 0.66 4.62 1.32 7 2 C6.67 2.66 6.34 3.32 6 4 C4.35 3.67 2.7 3.34 1 3 C0.67 2.01 0.34 1.02 0 0 Z " fill="#420F0F" transform="translate(8,35)"/>
<path d="" fill="#424142" transform="translate(0,0)"/>
<path d="" fill="#424142" transform="translate(0,0)"/>
<path d="" fill="#424142" transform="translate(0,0)"/>
</svg>
